<svg width="24" height="24" viewBox="0 0 48 48" fill="none" xmlns="http://www.w3.org/2000/svg"><path d="M23 40H7a3 3 0 0 1-3-3V11a3 3 0 0 1 3-3h34a3 3 0 0 1 3 3v14.882" stroke="currentColor" strokeWidth="3" strokeLinecap="round" strokeLinejoin="round"/><path d="M4 11a3 3 0 0 1 3-3h34a3 3 0 0 1 3 3v9H4v-9z" stroke="currentColor" strokeWidth="3"/><path d="M34 33l-4 4 4 4m6-8l4 4-4 4" stroke="currentColor" strokeWidth="3" strokeLinecap="round" strokeLinejoin="round"/><circle r="2" transform="matrix(0 -1 -1 0 10 14)" fill="currentColor"/><circle r="2" transform="matrix(0 -1 -1 0 16 14)" fill="currentColor"/></svg>