<svg width="24" height="24" viewBox="0 0 48 48" fill="none" xmlns="http://www.w3.org/2000/svg">
  <path d="M10 44h28a2 2 0 0 0 2-2V14H30V4H10a2 2 0 0 0-2 2v36a2 2 0 0 0 2 2z" stroke="currentColor" strokeWidth="3" strokeLinecap="round" strokeLinejoin="round"/>
  <path d="M30 4l10 10" stroke="currentColor" strokeWidth="3" strokeLinecap="round" strokeLinejoin="round"/>
  <path d="M22 20c-2 0-3 1-3 3v2c0 1.5-1 2-2 2v2c1 0 2 0.5 2 2v2c0 2 1 3 3 3" stroke="currentColor" strokeWidth="3" strokeLinecap="round" strokeLinejoin="round"/>
  <path d="M26 20c2 0 3 1 3 3v2c0 1.5 1 2 2 2v2c-1 0-2 0.5-2 2v2c0 2-1 3-3 3" stroke="currentColor" strokeWidth="3" strokeLinecap="round" strokeLinejoin="round"/>
</svg>