<svg width="19" height="19" viewBox="0 0 19 19" fill="none" xmlns="http://www.w3.org/2000/svg"><mask id="mask0_17105_511603" style="mask-type:alpha" maskUnits="userSpaceOnUse" x="0" y="0" width="20" height="20"><rect width="20" height="20" fill="#D9D9D9"/></mask><g mask="url(#mask0_17105_511603)"><path d="M11.7266 9.76823C12.7405 9.01823 13.5321 8.19531 14.1016 7.29948C14.671 6.40365 14.9557 5.51128 14.9557 4.6224C14.9557 4.17795 14.8828 3.85156 14.737 3.64323C14.5911 3.4349 14.3932 3.33073 14.1432 3.33073C13.4905 3.33073 12.9141 3.88281 12.4141 4.98698C11.9141 6.09115 11.6641 7.33767 11.6641 8.72656C11.6641 8.92101 11.6675 9.10503 11.6745 9.27865C11.6814 9.45226 11.6988 9.61545 11.7266 9.76823ZM2.4974 17.4974V15.8307H4.16406V17.4974H2.4974ZM5.83073 17.4974V15.8307H7.4974V17.4974H5.83073ZM9.16406 17.4974V15.8307H10.8307V17.4974H9.16406ZM12.4974 17.4974V15.8307H14.1641V17.4974H12.4974ZM15.8307 17.4974V15.8307H17.4974V17.4974H15.8307ZM2.83073 14.1641L1.66406 12.9974L2.9974 11.6641L1.66406 10.3307L2.83073 9.16406L4.16406 10.4974L5.4974 9.16406L6.66406 10.3307L5.33073 11.6641L6.66406 12.9974L5.4974 14.1641L4.16406 12.8307L2.83073 14.1641ZM12.8724 13.3307C12.4557 13.3307 12.0738 13.2509 11.7266 13.0911C11.3793 12.9314 11.0807 12.671 10.8307 12.3099C10.4835 12.5043 10.1259 12.678 9.75781 12.8307C9.38976 12.9835 9.01129 13.1363 8.6224 13.2891L8.03906 11.7266C8.42795 11.5877 8.79948 11.4384 9.15365 11.2786C9.50781 11.1189 9.85156 10.9488 10.1849 10.7682C10.1155 10.4627 10.0634 10.1293 10.0286 9.76823C9.99392 9.40712 9.97656 9.01823 9.97656 8.60156C9.97656 6.60156 10.3724 4.94531 11.1641 3.63281C11.9557 2.32031 12.9488 1.66406 14.1432 1.66406C14.8655 1.66406 15.4557 1.93142 15.9141 2.46615C16.3724 3.00087 16.6016 3.7474 16.6016 4.70573C16.6016 5.90017 16.2231 7.08073 15.4661 8.2474C14.7092 9.41406 13.6571 10.4627 12.3099 11.3932C12.4071 11.4905 12.5078 11.5634 12.612 11.612C12.7161 11.6606 12.8238 11.6849 12.9349 11.6849C13.296 11.6849 13.7161 11.4557 14.1953 10.9974C14.6745 10.5391 15.1085 9.9349 15.4974 9.1849L17.0182 9.89323C16.921 10.1293 16.8446 10.4141 16.7891 10.7474C16.7335 11.0807 16.7405 11.3724 16.8099 11.6224C16.9488 11.553 17.112 11.4349 17.2995 11.2682C17.487 11.1016 17.678 10.8932 17.8724 10.6432L19.1849 11.6641C18.8238 12.1641 18.4071 12.5668 17.9349 12.8724C17.4627 13.178 17.0252 13.3307 16.6224 13.3307C16.3307 13.3307 16.0703 13.2439 15.8411 13.0703C15.612 12.8967 15.421 12.6293 15.2682 12.2682C14.8793 12.6155 14.4835 12.8793 14.0807 13.0599C13.678 13.2405 13.2752 13.3307 12.8724 13.3307Z" fill="#1a1a1a"/></g></svg>